<svg aria-hidden="true" style="position: absolute; width: 0; height: 0; overflow: hidden;" version="1.1" xmlns="http://www.w3.org/2000/svg" xmlns:xlink="http://www.w3.org/1999/xlink">
<defs>
<symbol id="icon-logo" viewBox="0 0 105 32">
    <path d="M6.48 31.6h-6.48v-31.6h7.24c1.493 0 2.707 0.080 3.64 0.24 0.96 0.133 1.707 0.427 2.24 0.88s0.893 1.107 1.080 1.96c0.213 0.827 0.32 1.947 0.32 3.36v3.28c0 0.827-0.093 1.507-0.28 2.040s-0.427 0.96-0.72 1.28c-0.267 0.32-0.56 0.56-0.88 0.72-0.32 0.133-0.613 0.227-0.88 0.28v0.16c0.4 0.107 0.76 0.267 1.080 0.48 0.347 0.187 0.64 0.48 0.88 0.88s0.427 0.933 0.56 1.6c0.16 0.64 0.24 1.467 0.24 2.48v11.96h-6.52v-14c0-0.347-0.040-0.573-0.12-0.68-0.080-0.133-0.293-0.2-0.64-0.2h-0.76v14.88zM6.48 11.64h0.76c0.347 0 0.56-0.053 0.64-0.16 0.080-0.133 0.12-0.373 0.12-0.72v-4.32c0-0.347-0.040-0.573-0.12-0.68-0.080-0.133-0.293-0.2-0.64-0.2h-0.76v6.080zM29.702 26.92c0 1.12-0.093 2.013-0.28 2.68-0.16 0.667-0.48 1.187-0.96 1.56-0.453 0.347-1.093 0.573-1.92 0.68-0.8 0.107-1.853 0.16-3.16 0.16-1.28 0-2.333-0.053-3.16-0.16s-1.467-0.333-1.92-0.68c-0.453-0.373-0.773-0.893-0.96-1.56-0.16-0.667-0.24-1.56-0.24-2.68v-14.6c0-1.12 0.080-2.013 0.24-2.68 0.187-0.667 0.507-1.173 0.96-1.52 0.453-0.373 1.093-0.613 1.92-0.72s1.88-0.16 3.16-0.16c1.307 0 2.36 0.053 3.16 0.16 0.827 0.107 1.467 0.347 1.92 0.72 0.48 0.347 0.8 0.853 0.96 1.52 0.187 0.667 0.28 1.56 0.28 2.68v14.6zM22.662 25.8c0 0.347 0.040 0.587 0.12 0.72 0.080 0.107 0.28 0.16 0.6 0.16 0.347 0 0.56-0.053 0.64-0.16 0.080-0.133 0.12-0.373 0.12-0.72v-12.36c0-0.347-0.040-0.573-0.12-0.68-0.080-0.133-0.293-0.2-0.64-0.2-0.32 0-0.52 0.067-0.6 0.2-0.080 0.107-0.12 0.333-0.12 0.68v12.36zM38.298 0v8.72c0.347-0.48 0.773-0.813 1.28-1 0.533-0.187 1.187-0.28 1.96-0.28s1.4 0.093 1.88 0.28c0.48 0.16 0.84 0.427 1.080 0.8 0.267 0.373 0.44 0.88 0.52 1.52 0.107 0.613 0.16 1.373 0.16 2.28v14.6c0 0.933-0.053 1.72-0.16 2.36-0.080 0.613-0.253 1.107-0.52 1.48s-0.653 0.64-1.16 0.8c-0.507 0.16-1.16 0.24-1.96 0.24-0.907 0-1.64-0.093-2.2-0.28-0.56-0.213-0.987-0.547-1.28-1v1.080h-5.32v-31.6h5.72zM39.618 13.44c0-0.32-0.040-0.547-0.12-0.68-0.053-0.133-0.227-0.2-0.52-0.2-0.267 0-0.467 0.053-0.6 0.16-0.107 0.080-0.187 0.213-0.24 0.4v13c0.053 0.187 0.133 0.333 0.24 0.44 0.133 0.080 0.333 0.12 0.6 0.12 0.293 0 0.467-0.067 0.52-0.2 0.080-0.133 0.12-0.36 0.12-0.68v-12.36zM53.807 4.16h-5.68v-4.16h5.68v4.16zM53.807 31.6h-5.68v-23.96h5.68v23.96zM70.071 31.6h-5.76v-18.16c0-0.32-0.040-0.547-0.12-0.68-0.054-0.133-0.227-0.2-0.52-0.2-0.267 0-0.467 0.053-0.6 0.16-0.107 0.080-0.2 0.213-0.28 0.4v18.48h-5.72v-23.96h5.32v1.080c0.293-0.453 0.72-0.773 1.28-0.96 0.56-0.213 1.293-0.32 2.2-0.32 0.8 0 1.466 0.080 2 0.24 0.56 0.16 1 0.427 1.32 0.8s0.546 0.88 0.68 1.52c0.133 0.613 0.2 1.387 0.2 2.32v19.28zM78.925 31.6h-5.8v-5.64h5.8v5.64zM104.573 0l-3.28 31.6h-8.16l-1.080-22.92h-0.16l-1.32 22.92h-8.28l-2.44-31.6h6.52l0.68 22.16h0.16l0.96-22.16h8l0.68 22.16h0.16l1-22.16h6.56z"></path>
</symbol>
<symbol id="icon-skills1" viewBox="0 0 32 32">
    <path fill-rule="evenodd" clip-rule="evenodd" d="M30.2222 23.1111H17.7778V30.2222H30.2222V23.1111ZM30.2222 1.77778H17.7778V16H30.2222V1.77778ZM10.6667 16H1.77778V30.2222H10.6667V16ZM10.6667 1.77778H1.77778V8.88889H10.6667V1.77778ZM17.7778 0C16.7959 0 16 0.795947 16 1.77778V16C16 16.9819 16.7959 17.7778 17.7778 17.7778H30.2222C31.2041 17.7778 32 16.9819 32 16V1.77778C32 0.795947 31.2041 0 30.2222 0H17.7778ZM17.7778 21.3333C16.7959 21.3333 16 22.1292 16 23.1111V30.2222C16 31.2041 16.7959 32 17.7778 32H30.2222C31.2041 32 32 31.2041 32 30.2222V23.1111C32 22.1292 31.2041 21.3333 30.2222 21.3333H17.7778ZM0 16C0 15.0182 0.795947 14.2222 1.77778 14.2222H10.6667C11.6485 14.2222 12.4444 15.0182 12.4444 16V30.2222C12.4444 31.2041 11.6485 32 10.6667 32H1.77778C0.795947 32 0 31.2041 0 30.2222V16ZM1.77778 0C0.795947 0 0 0.795947 0 1.77778V8.88889C0 9.87072 0.795947 10.6667 1.77778 10.6667H10.6667C11.6485 10.6667 12.4444 9.87072 12.4444 8.88889V1.77778C12.4444 0.795947 11.6485 0 10.6667 0H1.77778Z" fill="#5221E6" />
</symbol>
<symbol id="icon-skills2" viewBox="0 0 32 32">
    <path d="M17.2211 1.20013L30.799 14.778L31.9993 13.5779L18.4214 0L17.2211 1.20013Z" fill="#5221E6" />
    <path fill-rule="evenodd" clip-rule="evenodd" d="M19.2336 7.60133C18.4975 6.86522 17.3874 6.65144 16.4305 7.06151L7.00714 11.1001C5.8941 11.5771 5.03594 12.5059 4.65549 13.6597C3.76246 16.3682 2.60708 19.9468 1.67428 23.0059C1.20815 24.5346 0.795621 25.9401 0.498919 27.0447C0.35075 27.5963 0.229365 28.0807 0.144391 28.4716C0.0652554 28.8358 0 29.1944 0 29.4529V29.8044L2.19436 31.9988H2.54586C2.80447 31.9988 3.16311 31.9336 3.52722 31.8545C3.91819 31.7695 4.40255 31.6481 4.95417 31.4999C6.05877 31.2033 7.46417 30.7907 8.99285 30.3246C12.052 29.3918 15.6306 28.2363 18.3392 27.3434C19.493 26.9629 20.4217 26.1048 20.8988 24.9917L24.9374 15.5683C25.3474 14.6115 25.1336 13.5013 24.3975 12.7652L19.2336 7.60133ZM17.0992 8.62152C17.4181 8.48483 17.7881 8.5561 18.0335 8.80147L23.1973 13.9654C23.4428 14.2107 23.5141 14.5808 23.3773 14.8997L19.3387 24.3232C19.0518 24.9924 18.4955 25.5046 17.8076 25.7314C15.1052 26.6224 11.5399 27.7735 8.49784 28.701C6.97594 29.1652 5.59147 29.5714 4.51389 29.8608C3.97444 30.0057 3.51965 30.1192 3.16676 30.196C3.09215 30.2121 3.02327 30.2265 2.9601 30.2389L11.6316 21.5674C12.5779 22.0195 13.7457 21.8535 14.5295 21.0697C15.5237 20.0755 15.5237 18.4636 14.5295 17.4694C13.5353 16.4751 11.9233 16.4751 10.9291 17.4694C10.1453 18.2532 9.97941 19.421 10.4315 20.3672L1.7599 29.0388C1.77238 28.9756 1.78668 28.9067 1.80291 28.8321C1.87961 28.4792 1.99315 28.0243 2.13806 27.485C2.42749 26.4074 2.83366 25.0229 3.29772 23.501C4.22533 20.4589 5.37634 16.8935 6.26738 14.1912C6.49416 13.5034 7.00635 12.947 7.67571 12.6601L17.0992 8.62152Z" fill="#5221E6" />
</symbol>
<symbol id="icon-skills3" viewBox="0 0 32 32">
    <circle cx="16" cy="16" r="15" fill="none" stroke="#5221E6" stroke-width="2" stroke-dasharray="10 10"/>
    <path d="M21 16L13.5 20.3301L13.5 11.6699L21 16Z" fill="#5221E6"/>
</symbol>
<symbol id="icon-skills4" viewBox="0 0 38 32">
    <path d="M29.8276 5.2356H26.8998L26.2272 2.20139C25.9399 0.905253 24.8106 0 23.4808 0H13.3164C11.9867 0 10.8573 0.90519 10.57 2.20133L9.89738 5.2356H9.20263V3.94096C9.20263 3.2114 8.608 2.6178 7.87712 2.6178H3.59138C2.8605 2.6178 2.26588 3.2114 2.26588 3.94096V5.2356H2.17231C0.9745 5.2356 0 6.20843 0 7.40424V22.0919C0 23.2877 0.9745 24.2605 2.17237 24.2605H4.39406H12.2471C14.0205 25.4073 16.1329 26.0741 18.3986 26.0741C20.6643 26.0741 22.7767 25.4073 24.55 24.2605H29.8276C31.0255 24.2605 32 23.2877 32 22.0919V7.40424C32 6.20843 31.0255 5.2356 29.8276 5.2356ZM11.7904 2.47093C11.9501 1.7508 12.5776 1.24779 13.3164 1.24779H23.4807C24.2196 1.24779 24.8471 1.75073 25.0067 2.47093L25.6196 5.2356H24.55C22.7766 4.08883 20.6643 3.42204 18.3986 3.42204C16.1329 3.42204 14.0205 4.08883 12.2471 5.2356H11.1775L11.7904 2.47093ZM3.51588 3.94096C3.51588 3.89941 3.54975 3.86565 3.59138 3.86565H7.87706C7.91869 3.86565 7.95256 3.89947 7.95256 3.94096V5.2356H3.51588V3.94096ZM5.01906 23.0126V16.2357C5.01906 15.8911 4.73925 15.6118 4.39406 15.6118C4.04887 15.6118 3.76906 15.8911 3.76906 16.2357V23.0127H2.17237C1.66381 23.0127 1.25 22.5996 1.25 22.0919V7.40424C1.25 6.89649 1.66381 6.48345 2.17237 6.48345H2.89094H8.57756H10.3991H10.6496C8.43769 8.55152 7.053 11.4912 7.053 14.748C7.053 18.0049 8.43769 20.9445 10.6496 23.0126H5.01906ZM24.1692 23.0127C23.4242 23.5326 22.606 23.9547 21.7333 24.2605C20.6888 24.6265 19.5667 24.8262 18.3986 24.8262C17.2304 24.8262 16.1082 24.6264 15.0638 24.2605C14.1911 23.9547 13.373 23.5326 12.6279 23.0127C10.0154 21.1892 8.303 18.1648 8.303 14.7481C8.303 11.3314 10.0154 8.30694 12.6279 6.48352C13.3729 5.96354 14.1911 5.54145 15.0638 5.23567C16.1083 4.86967 17.2304 4.66995 18.3986 4.66995C19.5667 4.66995 20.6889 4.86973 21.7333 5.23567C22.606 5.54145 23.4241 5.96354 24.1692 6.48352C26.7817 8.30694 28.4941 11.3314 28.4941 14.7481C28.4941 18.1648 26.7817 21.1892 24.1692 23.0127ZM30.75 22.0918C30.75 22.5996 30.3363 23.0126 29.8276 23.0126H26.1475C28.3594 20.9445 29.7441 18.0049 29.7441 14.748C29.7441 11.4912 28.3594 8.55152 26.1475 6.48345H26.398H29.8276C30.3363 6.48345 30.75 6.89649 30.75 7.40424V22.0918Z" fill="#5221E6" />
    <path d="M18.3704 7.11108C14.1225 7.11108 10.6667 10.5669 10.6667 14.8148C10.6667 19.0626 14.1225 22.5185 18.3704 22.5185C18.9893 22.5185 19.6054 22.4448 20.2014 22.2994C20.5163 22.2226 20.7092 21.9052 20.6325 21.5904C20.5557 21.2755 20.2382 21.0825 19.9234 21.1594C19.4182 21.2826 18.8957 21.345 18.3704 21.345C14.7696 21.345 11.8402 18.4156 11.8402 14.8149C11.8402 11.2141 14.7696 8.28469 18.3704 8.28469C21.9711 8.28469 24.9005 11.2141 24.9005 14.8149C24.9005 16.1272 24.513 17.3926 23.7797 18.4742C23.5979 18.7424 23.668 19.1074 23.9362 19.2892C24.2042 19.471 24.5692 19.401 24.7511 19.1328C25.6166 17.8561 26.0741 16.363 26.0741 14.8149C26.0741 10.5669 22.6182 7.11108 18.3704 7.11108Z" fill="#5221E6" />
    <path d="M4.74075 8.29639C3.43369 8.29639 2.37038 9.35976 2.37038 10.6668C2.37038 11.9738 3.43375 13.0371 4.74075 13.0371C6.04774 13.0371 7.11112 11.9738 7.11112 10.6668C7.11112 9.35976 6.04774 8.29639 4.74075 8.29639ZM4.74075 11.764C4.13579 11.764 3.64357 11.2718 3.64357 10.6668C3.64357 10.0619 4.13579 9.56965 4.74075 9.56965C5.34571 9.56965 5.83792 10.0619 5.83792 10.6668C5.83792 11.2718 5.34577 11.764 4.74075 11.764Z" fill="#5221E6" />
    <path d="M23.6924 20.6248C23.6847 20.5875 23.6734 20.5502 23.6586 20.514C23.6438 20.4785 23.6254 20.4441 23.6041 20.4121C23.5828 20.3795 23.5579 20.3493 23.5306 20.3221C23.5033 20.2948 23.4726 20.2699 23.4405 20.248C23.4079 20.2267 23.3736 20.2083 23.338 20.1935C23.3024 20.1787 23.2652 20.1674 23.2272 20.1597C23.1508 20.1443 23.072 20.1443 22.9955 20.1597C22.9575 20.1674 22.9202 20.1787 22.8847 20.1935C22.8491 20.2083 22.8148 20.2267 22.7822 20.248C22.7502 20.2699 22.72 20.2948 22.6921 20.3221C22.6648 20.3493 22.64 20.3795 22.6186 20.4121C22.5973 20.4441 22.5789 20.4785 22.5641 20.514C22.5493 20.5502 22.538 20.5875 22.5303 20.6248C22.5226 20.6633 22.5185 20.7024 22.5185 20.7409C22.5185 20.7794 22.5226 20.8185 22.5303 20.8565C22.538 20.8944 22.5493 20.9317 22.5641 20.9672C22.5789 21.0034 22.5973 21.0377 22.6186 21.0697C22.64 21.1023 22.6648 21.1325 22.6921 21.1598C22.72 21.187 22.7501 21.2119 22.7822 21.2333C22.8148 21.2546 22.8491 21.2729 22.8847 21.2878C22.9203 21.3026 22.9575 21.3138 22.9955 21.3215C23.034 21.3292 23.0726 21.3334 23.1111 21.3334C23.1501 21.3334 23.1887 21.3292 23.2272 21.3215C23.2652 21.3138 23.3025 21.3026 23.338 21.2878C23.3736 21.2729 23.408 21.2546 23.4405 21.2333C23.4725 21.2119 23.5033 21.187 23.5306 21.1598C23.6408 21.0496 23.7037 20.8967 23.7037 20.7409C23.7037 20.7024 23.7001 20.6633 23.6924 20.6248Z" fill="#5221E6" />
</symbol>
<symbol id="icon-company1" viewBox="0 0 130 32">
    <path fill="#8491a0" style="fill: var(--color1, #8491a0)" d="M58.884 15.478c4.094-1.351 4.836-4.767 4.827-7.55-0.008-4.249-3.026-7.925-11.959-7.925l-16.674-0.003v31.934h16.631c8.987 0 12.293-4.586 12.293-9.18 0-5.563-5.118-7.276-5.118-7.276zM42.99 6.947l11.267 0.008c1.267 0.223 2.19 1.294 2.19 2.551 0 1.286-0.989 2.496-2.295 2.673l-11.154 0.017-0.008-5.249zM53.676 24.492h-10.686v-5.347l10.973 0.003c1.362 0.156 2.394 1.282 2.394 2.619 0 1.457-1.221 2.702-2.681 2.725z"></path>
    <path fill="#8491a0" style="fill: var(--color1, #8491a0)" d="M101.339 0.004h28.177l-0.016 6.97h-20.332l0.019 5.147h18.33v7.006h-18.33v5.57h20.335l-0.004 7.303h-28.18v-31.996z"></path>
    <path fill="#8491a0" style="fill: var(--color1, #8491a0)" d="M84.95 0.046h-17.039v31.944h7.825v-12.924c0 0 8.616-0.010 8.617-0.010 2.468 0.038 4.387 2.047 4.387 4.525v8.381l7.659-0.003-0.015-10.31c0-4.776-4.641-6.187-4.641-6.187s4.745-1.412 4.745-7.058c0-6.908-5.973-8.359-11.537-8.359zM89.221 9.957c-0.141 1.050-1.197 2.189-2.516 2.189l-10.997 0.004v-5.115h11.002c1.313 0 2.343 0.962 2.51 2.225v0.697z"></path>
    <path fill="#8491a0" style="fill: var(--color1, #8491a0)" d="M30.003 24.271c-0.113 0.003-10.696 0.206-14.349-0.148-5.885-0.573-7.969-4.906-7.969-8.442 0-4.409 3.024-7.654 7.709-8.264 2.229-0.29 14.416-0.153 14.545-0.152l0.256 0.003 0.026-7.264-0.259 0.001-13.794 0.025c-1.536 0.093-4.082 0.247-6.689 1.307-2.504 1.141-4.684 2.892-6.312 5.072-2.071 2.775-3.168 6.067-3.168 9.521 0 1.086 0.086 2.165 0.263 3.199 0.993 4.843 4.187 8.851 8.767 11.007 1.547 0.676 3.932 1.488 8.742 1.756 0.010 0 2.591 0.054 2.591 0.054l9.87 0.010 0.027-7.688-0.257 0.003z"></path>
</symbol>
<symbol id="icon-company2" viewBox="0 0 78 32">
    <path fill="#8491a0" style="fill: var(--color1, #8491a0)" d="M21.531 15.557c-1.528 4.65-5.266 7.27-10.319 7.27-6.285 0-11.212-4.987-11.212-11.371 0-6.298 4.926-11.456 10.999-11.456 5.648 0 11.084 4.65 11.042 12.385h-18.389c0.467 4.524 3.949 7.187 7.559 7.187 3.1 0 5.308-1.48 6.498-4.016h3.822zM18.049 9.173c-0.892-3.551-3.865-5.918-7.050-5.918-3.015 0-6.2 2.199-7.134 5.918h14.184zM34.739 22.827c-3.143 0-5.861-1.691-7.432-3.804v12.977h-3.61v-31.45h3.482v3.466c1.529-2.197 4.331-4.016 7.559-4.016 6.285 0 10.914 5.115 10.914 11.372 0 6.341-4.629 11.455-10.914 11.455zM34.739 3.298c-4.035 0-7.432 3.636-7.432 8.074 0 4.48 3.397 8.158 7.432 8.158 4.077 0 7.304-3.678 7.304-8.158 0-4.438-3.228-8.074-7.304-8.074zM47.224 0.55h3.61v21.77h-3.61v-21.77zM52.446 11.469c0-6.353 5.18-11.462 11.739-11.462s11.74 5.11 11.74 11.462c0 6.353-5.229 11.369-11.74 11.369s-11.739-5.017-11.739-11.37zM65.176 3.475c-5.976-0.52-9.299 4.008-9.299 9.284 0 5.275 4.368 9.552 9.754 9.552 2.016 0.004 3.985-0.61 5.639-1.758l-1.352-3.427c1.397-1.449 2.204-3.451 2.204-5.663 0-4.372-3.067-7.627-6.946-7.99z"></path>
    <path fill="#8491a0" style="fill: var(--color1, #8491a0)" d="M62.029 13.657l10.65 8.625h5.666l-10.375-8.625z"></path>
</symbol>
<symbol id="icon-company3" viewBox="0 0 32 32">
    <path fill="#8491a0" style="fill: var(--color1, #8491a0)" d="M30.601 0h-30.219c-0.090 0-0.176 0.032-0.245 0.089s-0.115 0.137-0.131 0.225c-0.016 0.088 0 0.179 0.045 0.257s0.115 0.137 0.199 0.168l27.333 8.949c0.031 0.010 0.065 0.009 0.096-0.003s0.056-0.035 0.071-0.064l4.079-7.566c0.114-0.212 0.172-0.451 0.167-0.692s-0.073-0.477-0.197-0.684c-0.124-0.207-0.299-0.379-0.509-0.498s-0.447-0.182-0.688-0.182z"></path>
    <path fill="#8491a0" style="fill: var(--color1, #8491a0)" d="M0.007 31.633c0 0.082 0.027 0.162 0.078 0.227s0.121 0.111 0.201 0.131 0.164 0.013 0.239-0.020c0.075-0.033 0.137-0.090 0.176-0.163l5.258-9.74c0.119-0.221 0.297-0.406 0.513-0.535s0.463-0.197 0.714-0.197h13.414c0.252 0 0.498-0.068 0.715-0.197s0.393-0.314 0.513-0.535l4.008-7.432c0.009-0.017 0.014-0.036 0.013-0.055s-0.006-0.038-0.016-0.055c-0.010-0.016-0.024-0.030-0.040-0.040s-0.036-0.014-0.055-0.014h-24.335c-0.37 0-0.724 0.147-0.986 0.408s-0.408 0.616-0.408 0.986v17.23z"></path>
</symbol>
<symbol id="icon-company4" viewBox="0 0 32 32">
    <path fill="#8491a0" style="fill: var(--color1, #8491a0)" d="M29.696 0h-14.231c-8.541 0-15.465 5.947-15.465 14.488v10.040c6.234-12.744 21.387-21.699 29.696-24.528z"></path>
    <path fill="#8491a0" style="fill: var(--color1, #8491a0)" d="M1.525 32h12.612c8.541 0 15.465-6.924 15.465-15.465v-15.796c-13.167 7.311-22.177 18.691-28.077 31.261z"></path>
</symbol>
</defs>
</svg>